<svg xmlns="http://www.w3.org/2000/svg"  viewBox="0 0 100 100" width="512px" height="512px"><path fill="#c8ede6" d="M87.234,55.551c0.3-0.616,0.566-1.264,0.796-1.943c2.633-7.77-1.349-17.078-9.733-19.325 C77.391,22.9,69.391,15.09,60.356,13.758c-10.341-1.525-19.814,5.044-22.966,15.485c-3.799-1.346-7.501-1.182-10.99,0.857 c-1.583,0.732-3.031,1.812-4.33,3.233c-1.907,2.086-3.147,4.719-3.652,7.495c-0.748,0.118-1.483,0.236-2.176,0.484 c-4.04,1.449-6.589,4.431-7.288,8.923c-0.435,2.797,0.443,5.587,0.933,6.714c1.935,4.455,6.422,6.98,10.981,6.312 c0.227-0.033,0.557,0.069,0.752,0.233c0.241,7.12,3.698,13.417,8.884,17.014c8.321,5.772,19.027,3.994,25.781-3.921 c2.894,2.96,6.338,4.398,10.384,3.876c4.023-0.519,7.147-2.739,9.426-6.349c1.053,0.283,2.051,0.691,3.083,0.804 c4.042,0.442,7.297-1.184,9.732-4.8c0.083-0.124,0.203-0.219,0.306-0.328c0.348-0.798,0.696-1.596,1.044-2.394 c0.155-1.211,0.429-2.423,0.443-3.632C90.742,60.508,89.411,57.54,87.234,55.551z"/><path fill="#fff" d="M19.899 49H9.869c-.276 0-.5-.224-.5-.5s.224-.5.5-.5h10.03c.276 0 .5.224.5.5S20.176 49 19.899 49zM23.28 48.5c0-.276-.224-.5-.5-.5h-1.446c-.276 0-.5.224-.5.5s.224.5.5.5h1.446C23.057 49 23.28 48.776 23.28 48.5zM27.335 48.5c0-.276-.224-.5-.5-.5h-2.546c-.276 0-.5.224-.5.5s.224.5.5.5h2.546C27.112 49 27.335 48.776 27.335 48.5zM27.335 50.5c0-.276-.224-.5-.5-.5h-9.616c-.276 0-.5.224-.5.5s.224.5.5.5h9.616C27.112 51 27.335 50.776 27.335 50.5zM15.987 50.5c0-.276-.224-.5-.5-.5h-.58c-.276 0-.5.224-.5.5s.224.5.5.5h.58C15.763 51 15.987 50.776 15.987 50.5zM13.611 50.5c0-.276-.224-.5-.5-.5h-1.457c-.276 0-.5.224-.5.5s.224.5.5.5h1.457C13.387 51 13.611 50.776 13.611 50.5zM22.746 46.5c0-.276-.224-.5-.5-.5h-5.027c-.276 0-.5.224-.5.5s.224.5.5.5h5.027C22.523 47 22.746 46.776 22.746 46.5zM22.746 44.5c0-.276-.224-.5-.5-.5h-1.257c-.276 0-.5.224-.5.5s.224.5.5.5h1.257C22.523 45 22.746 44.776 22.746 44.5zM19.477 52.5c0-.276-.224-.5-.5-.5h-1.758c-.276 0-.5.224-.5.5s.224.5.5.5h1.758C19.254 53 19.477 52.776 19.477 52.5zM73 27H63c-.276 0-.5-.224-.5-.5S62.724 26 63 26h10c.276 0 .5.224.5.5S73.276 27 73 27zM77 27h-2c-.276 0-.5-.224-.5-.5S74.724 26 75 26h2c.276 0 .5.224.5.5S77.276 27 77 27zM82 29H72c-.276 0-.5-.224-.5-.5S71.724 28 72 28h10c.276 0 .5.224.5.5S82.277 29 82 29zM70 29h-1c-.276 0-.5-.224-.5-.5S68.724 28 69 28h1c.276 0 .5.224.5.5S70.276 29 70 29zM66.875 29H65c-.276 0-.5-.224-.5-.5S64.724 28 65 28h1.875c.276 0 .5.224.5.5S67.151 29 66.875 29zM76 25h-5c-.276 0-.5-.224-.5-.5S70.724 24 71 24h5c.276 0 .5.224.5.5S76.277 25 76 25zM73 31h-2c-.276 0-.5-.224-.5-.5S70.724 30 71 30h2c.276 0 .5.224.5.5S73.276 31 73 31z"/><path fill="#fdfcef" d="M70.674,59.423c0,0-11.691,0-11.762,0c-2.7,0-4.888-2.189-4.888-4.889 c0-2.355,1.666-4.321,3.884-4.784c-0.026-0.206-0.043-0.415-0.043-0.628c0-2.796,2.267-5.063,5.063-5.063 c1.651,0,3.113,0.794,4.037,2.017c0.236-3.113,3.017-5.514,6.27-5.116c2.379,0.291,4.346,2.13,4.784,4.486 c0.14,0.756,0.126,1.489-0.014,2.177c0.638-0.687,1.546-1.119,2.557-1.119c1.85,0,3.361,1.441,3.48,3.261 c0.84-0.186,1.754-0.174,2.717,0.188c1.84,0.691,3.15,2.423,3.227,4.387c0.109,2.789-2.12,5.085-4.885,5.085 c-0.21,0-0.948,0-1.118,0H73.832"/><path fill="#472b29" d="M58.912,59.923h11.762c0.276,0,0.5-0.224,0.5-0.5s-0.224-0.5-0.5-0.5H58.912 c-2.42,0-4.389-1.969-4.389-4.389c0-2.066,1.466-3.873,3.486-4.295c0.255-0.053,0.426-0.293,0.394-0.552 c-0.023-0.186-0.039-0.374-0.039-0.565c0-2.517,2.047-4.563,4.562-4.563c1.438,0,2.765,0.663,3.638,1.818 c0.125,0.166,0.338,0.237,0.54,0.178c0.199-0.059,0.342-0.234,0.357-0.441c0.104-1.377,0.779-2.671,1.85-3.549 c1.083-0.888,2.456-1.282,3.86-1.109c2.166,0.266,3.956,1.943,4.353,4.081c0.124,0.667,0.12,1.335-0.013,1.986 c-0.044,0.22,0.062,0.442,0.262,0.544c0.2,0.104,0.443,0.06,0.595-0.104c0.575-0.618,1.353-0.959,2.19-0.959 c1.569,0,2.878,1.228,2.981,2.794c0.01,0.146,0.082,0.279,0.199,0.366c0.117,0.089,0.268,0.12,0.408,0.089 c0.841-0.185,1.637-0.132,2.433,0.167c1.669,0.627,2.835,2.209,2.903,3.938c0.047,1.207-0.387,2.35-1.221,3.218 c-0.835,0.869-1.959,1.348-3.164,1.348H73.828c-0.276,0-0.5,0.224-0.5,0.5s0.224,0.5,0.5,0.5h11.271 c1.479,0,2.858-0.588,3.884-1.654c1.025-1.066,1.558-2.469,1.5-3.95c-0.083-2.126-1.51-4.069-3.55-4.835 c-0.8-0.301-1.626-0.398-2.468-0.299c-0.377-1.822-1.998-3.182-3.905-3.182c-0.684,0-1.354,0.18-1.944,0.51 c0-0.386-0.035-0.772-0.106-1.159c-0.477-2.562-2.621-4.573-5.215-4.891c-1.679-0.205-3.32,0.266-4.616,1.328 c-1.003,0.823-1.716,1.951-2.038,3.193c-1.012-0.916-2.319-1.426-3.714-1.426c-3.067,0-5.562,2.496-5.562,5.563 c0,0.083,0.002,0.166,0.007,0.248c-2.254,0.673-3.848,2.776-3.848,5.164C53.523,57.507,55.94,59.923,58.912,59.923z"/><path fill="#fdfcef" d="M73.507,48.655c1.808-0.119,3.365,1.13,3.476,2.789c0.014,0.206,0.005,0.409-0.025,0.606 c0.349-0.394,0.865-0.661,1.458-0.7c1.085-0.071,2.022,0.645,2.158,1.62c0.197-0.054,0.403-0.09,0.616-0.104 c1.582-0.104,2.944,0.989,3.042,2.441"/><path fill="#472b29" d="M84.231,55.556c0.006,0,0.012,0,0.017-0.001c0.138-0.009,0.242-0.128,0.233-0.266 c-0.107-1.587-1.588-2.789-3.308-2.674c-0.137,0.009-0.273,0.026-0.409,0.053c-0.274-0.968-1.256-1.645-2.366-1.567 c-0.425,0.027-0.823,0.159-1.164,0.382c0-0.019-0.002-0.037-0.003-0.056c-0.12-1.795-1.787-3.16-3.742-3.021 c-0.138,0.009-0.242,0.128-0.233,0.266c0.009,0.138,0.124,0.255,0.266,0.232c1.651-0.105,3.108,1.037,3.21,2.557 c0.012,0.184,0.004,0.37-0.023,0.553c-0.017,0.109,0.041,0.217,0.141,0.264s0.219,0.022,0.293-0.061 c0.323-0.365,0.78-0.584,1.287-0.617c0.951-0.034,1.775,0.556,1.894,1.404c0.01,0.071,0.05,0.135,0.11,0.175 c0.06,0.039,0.133,0.051,0.204,0.032c0.187-0.051,0.377-0.083,0.567-0.097c1.44-0.092,2.687,0.896,2.775,2.209 C83.991,55.455,84.101,55.556,84.231,55.556z"/><path fill="#fdfcef" d="M56.932,50.323c1.699-0.801,3.664-0.234,4.389,1.267c0.09,0.186,0.157,0.379,0.201,0.574"/><path fill="#472b29" d="M61.522,52.414c0.018,0,0.037-0.002,0.056-0.006c0.134-0.031,0.219-0.165,0.188-0.3 c-0.049-0.217-0.123-0.428-0.219-0.627c-0.783-1.621-2.902-2.239-4.721-1.385c-0.125,0.06-0.179,0.208-0.12,0.333 c0.059,0.126,0.209,0.176,0.333,0.12c1.574-0.744,3.394-0.227,4.058,1.149c0.08,0.165,0.141,0.34,0.182,0.521 C61.305,52.336,61.408,52.414,61.522,52.414z"/><path fill="#84a7d7" d="M50,62.668c-0.636,0-1.282-0.05-1.921-0.147c-5.347-0.817-9.379-5.376-9.379-10.605V36.453 c0-5.229,4.032-9.788,9.379-10.605C48.718,25.75,49.364,25.7,50,25.7c6.23,0,11.3,4.689,11.3,10.453v16.062 C61.3,57.979,56.23,62.668,50,62.668z M50,29.654c-0.511,0-1.027,0.052-1.538,0.156c-3.13,0.635-5.402,3.378-5.402,6.522v15.702 c0,3.144,2.272,5.888,5.402,6.523c0.51,0.104,1.026,0.156,1.537,0.156l0,0c1.842,0,3.577-0.67,4.888-1.888 c1.324-1.23,2.054-2.869,2.054-4.612V36.153C56.94,32.569,53.827,29.654,50,29.654z"/><path fill="#472b29" d="M50.001,25v1.4c5.844,0,10.599,4.375,10.599,9.753v16.061c0,5.378-4.755,9.753-10.6,9.753 c-0.6,0-1.211-0.047-1.815-0.139c-5.008-0.766-8.785-5.028-8.785-9.914V36.453c0-4.885,3.777-9.147,8.785-9.914 C48.789,26.447,49.399,26.4,50,26.4L50.001,25 M50,59.415c4.213,0,7.64-3.23,7.64-7.2V36.154c0-3.97-3.427-7.2-7.64-7.2 c-0.557,0-1.121,0.057-1.677,0.17c-3.455,0.702-5.963,3.734-5.963,7.209v15.703c0,3.475,2.508,6.507,5.963,7.209 C48.879,59.357,49.443,59.415,50,59.415 M50,25c-0.664,0-1.342,0.051-2.026,0.155C42.141,26.048,38,30.958,38,36.453v15.463 c0,5.495,4.141,10.405,9.974,11.298c0.685,0.105,1.362,0.155,2.026,0.155c6.617,0,12-5.003,12-11.154V36.154 C62,30.003,56.617,24.999,50,25L50,25z M50,58.015c-0.456,0-0.924-0.046-1.398-0.142c-2.882-0.585-4.842-3.095-4.842-5.837V36.333 c0-2.742,1.96-5.251,4.842-5.837c0.474-0.096,0.942-0.142,1.398-0.142c3.44,0,6.24,2.602,6.24,5.8v16.061 C56.24,55.413,53.441,58.015,50,58.015L50,58.015z"/><g><path fill="#f2df5e" d="M50 41.7A16.3 16.3 0 1 0 50 74.3A16.3 16.3 0 1 0 50 41.7Z"/><path fill="#472b29" d="M50,42.4c8.602,0,15.6,6.998,15.6,15.6S58.602,73.6,50,73.6S34.4,66.602,34.4,58 S41.398,42.4,50,42.4 M50,41c-9.389,0-17,7.611-17,17s7.611,17,17,17s17-7.611,17-17S59.389,41,50,41L50,41z"/></g><g><path fill="#472b29" d="M49.303 41.895H49.803V74.106H49.303z"/></g><g><path fill="#472b29" d="M33.447 57.75H65.658V58.25H33.447z"/></g><g><path fill="#472b29" d="M33.447 57.75H65.65700000000001V58.25H33.447z" transform="rotate(-45.001 49.552 58)"/><path fill="#472b29" d="M33.448 57.75H65.658V58.251H33.448z" transform="rotate(-60.033 49.553 58.001)"/><path fill="#472b29" d="M45.548 73.601L45.065 73.47 53.558 42.399 54.04 42.53z"/><path fill="#472b29" d="M34.098 62.538L33.965 62.056 65.008 53.462 65.141 53.944z"/><path fill="#472b29" d="M35.758 66.313L35.506 65.882 63.348 49.687 63.6 50.118z"/></g><g><path fill="#472b29" d="M49.302 41.895H49.802V74.105H49.302z" transform="rotate(-45.001 49.554 58.002)"/><path fill="#472b29" d="M49.302 41.895H49.803V74.105H49.302z" transform="rotate(-30 49.551 58.003)"/><path fill="#472b29" d="M53.558 73.601L45.065 42.53 45.548 42.399 54.04 73.47z"/><path fill="#472b29" d="M65.008 62.538L33.965 53.944 34.098 53.462 65.141 62.056z"/><path fill="#472b29" d="M63.348 66.313L35.506 50.118 35.758 49.687 63.6 65.882z"/></g><g><path fill="#84a7d7" d="M50 46.816A11.184 11.184 0 1 0 50 69.184A11.184 11.184 0 1 0 50 46.816Z"/></g><g><path fill="#472b29" d="M50,69.685c-6.443,0-11.685-5.241-11.685-11.685S43.557,46.315,50,46.315 c1.34,0,2.654,0.226,3.908,0.67c0.261,0.093,0.396,0.379,0.305,0.639c-0.093,0.261-0.38,0.397-0.639,0.305 c-1.146-0.407-2.349-0.613-3.574-0.613c-5.892,0-10.685,4.793-10.685,10.685S44.108,68.685,50,68.685 c1.313,0,2.595-0.235,3.811-0.7c0.256-0.099,0.547,0.03,0.646,0.288s-0.03,0.547-0.288,0.646 C52.837,69.427,51.435,69.685,50,69.685z"/></g><g><path fill="#472b29" d="M58.701,65.527c-0.11,0-0.222-0.036-0.314-0.111c-0.215-0.174-0.248-0.488-0.074-0.703 c1.529-1.892,2.372-4.275,2.372-6.713c0-1.455-0.287-2.864-0.854-4.19c-0.108-0.254,0.01-0.548,0.264-0.656 c0.251-0.107,0.548,0.009,0.656,0.264c0.619,1.45,0.934,2.992,0.934,4.583c0,2.666-0.922,5.272-2.595,7.342 C58.991,65.464,58.847,65.527,58.701,65.527z"/></g><g><path fill="#472b29" d="M58.555,51.296c-0.143,0-0.283-0.061-0.383-0.178c-0.614-0.729-1.324-1.375-2.109-1.918 c-0.228-0.157-0.284-0.469-0.127-0.695c0.156-0.229,0.469-0.285,0.695-0.127c0.858,0.593,1.634,1.298,2.307,2.096 c0.178,0.211,0.15,0.526-0.061,0.705C58.783,51.257,58.669,51.296,58.555,51.296z"/></g><g><path fill="#6673a7" d="M48.302,61.75l0.777-4.084c0.019-0.096-0.021-0.192-0.099-0.25c-0.457-0.33-0.73-0.859-0.73-1.416 c0-0.965,0.785-1.75,1.75-1.75s1.75,0.785,1.75,1.75c0,0.557-0.273,1.086-0.73,1.416c-0.078,0.058-0.117,0.154-0.099,0.25 l0.777,4.084H48.302z"/><path fill="#472b29" d="M50,54.5c0.827,0,1.5,0.673,1.5,1.5c0,0.484-0.229,0.926-0.627,1.214 c-0.158,0.114-0.235,0.308-0.199,0.499l0.721,3.787h-2.792l0.721-3.787c0.036-0.191-0.041-0.385-0.199-0.499 C48.729,56.926,48.5,56.484,48.5,56C48.5,55.173,49.173,54.5,50,54.5 M50,54c-1.105,0-2,0.895-2,2 c0,0.668,0.331,1.256,0.834,1.619L48,62h4l-0.834-4.381C51.669,57.256,52,56.668,52,56C52,54.895,51.105,54,50,54L50,54z"/></g><g><path fill="#fdfcef" d="M41.178,77.287c1.883,0,3.517,0,3.54,0c2.11,0,3.821-1.674,3.821-3.739 c0-1.802-1.302-3.305-3.035-3.66c0.02-0.158,0.034-0.317,0.034-0.48c0-2.139-1.772-3.873-3.957-3.873 c-1.29,0-2.433,0.607-3.155,1.543c-0.185-2.381-2.358-4.218-4.9-3.913c-1.859,0.223-3.397,1.629-3.739,3.431 c-0.11,0.578-0.098,1.139,0.011,1.665c-0.498-0.525-1.208-0.856-1.998-0.856c-1.446,0-2.627,1.102-2.72,2.494 c-0.657-0.142-1.371-0.133-2.123,0.143c-1.438,0.528-2.462,1.853-2.522,3.356c-0.085,2.133,1.657,3.889,3.818,3.889 c0.164,0,0.741,0,0.874,0h7.934 M34.701,77.287h0.36"/><path fill="#472b29" d="M44.718,77.788h-3.54c-0.276,0-0.5-0.224-0.5-0.5s0.224-0.5,0.5-0.5h3.54 c1.831,0,3.321-1.453,3.321-3.239c0-1.524-1.108-2.858-2.636-3.17c-0.256-0.053-0.429-0.294-0.396-0.554 c0.018-0.137,0.03-0.275,0.03-0.417c0-1.86-1.551-3.373-3.457-3.373c-1.092,0-2.098,0.491-2.76,1.349 c-0.126,0.164-0.341,0.231-0.539,0.174c-0.198-0.06-0.339-0.234-0.355-0.44c-0.079-1.02-0.565-1.944-1.369-2.604 c-0.829-0.68-1.885-0.979-2.973-0.853c-1.646,0.197-3.006,1.442-3.307,3.027c-0.094,0.495-0.091,0.99,0.009,1.472 c0.045,0.219-0.06,0.441-0.258,0.545c-0.197,0.102-0.44,0.063-0.594-0.1c-0.428-0.451-1.009-0.7-1.635-0.7 c-1.169,0-2.145,0.891-2.221,2.027c-0.01,0.146-0.082,0.278-0.198,0.366c-0.116,0.087-0.264,0.12-0.406,0.089 c-0.639-0.138-1.243-0.098-1.846,0.125c-1.262,0.463-2.144,1.631-2.195,2.905c-0.035,0.876,0.283,1.709,0.895,2.346 c0.635,0.66,1.496,1.024,2.423,1.024h8.807c0.276,0,0.5,0.224,0.5,0.5s-0.224,0.5-0.5,0.5h-8.807 c-1.185,0-2.331-0.485-3.144-1.331c-0.803-0.836-1.219-1.929-1.173-3.078c0.067-1.675,1.212-3.204,2.849-3.806 c0.61-0.225,1.24-0.304,1.88-0.244c0.344-1.396,1.629-2.424,3.135-2.424c0.493,0,0.977,0.113,1.414,0.323 c0.009-0.242,0.037-0.484,0.083-0.727c0.381-2.009,2.096-3.585,4.17-3.833c1.365-0.167,2.685,0.218,3.726,1.071 c0.748,0.613,1.278,1.409,1.546,2.302c0.791-0.648,1.786-1.007,2.842-1.007c2.458,0,4.457,1.962,4.457,4.373 c0,0.034,0,0.068-0.001,0.103c1.764,0.555,3.003,2.188,3.003,4.038C49.039,75.886,47.101,77.788,44.718,77.788z M35.061,77.788 h-0.36c-0.276,0-0.5-0.224-0.5-0.5s0.224-0.5,0.5-0.5h0.36c0.276,0,0.5,0.224,0.5,0.5S35.337,77.788,35.061,77.788z"/><g><path fill="#472b29" d="M43.011,71.984c-0.018,0-0.036-0.002-0.055-0.006c-0.135-0.03-0.22-0.164-0.189-0.299 c0.037-0.164,0.094-0.325,0.17-0.479c0.604-1.224,2.272-1.677,3.722-1.007c0.125,0.058,0.18,0.206,0.122,0.331 c-0.058,0.126-0.207,0.179-0.332,0.122c-1.201-0.556-2.577-0.208-3.063,0.774c-0.058,0.118-0.102,0.242-0.13,0.367 C43.229,71.905,43.126,71.984,43.011,71.984z"/></g><g><path fill="#472b29" d="M37.852,77.788h-1.107c-0.276,0-0.5-0.224-0.5-0.5s0.224-0.5,0.5-0.5h1.107 c0.276,0,0.5,0.224,0.5,0.5S38.129,77.788,37.852,77.788z"/></g></g></svg>